HIERARCHY
ROOT joint_Root
{
	OFFSET 0.0 0.0 0.0
	CHANNELS 6 Xposition Yposition Zposition Zrotation Xrotation Yrotation 
	JOINT Hips
	{
		OFFSET -17.1583 93.1646 452.98
		CHANNELS 6 Xposition Yposition Zposition Zrotation Xrotation Yrotation 
		JOINT Spine
		{
			OFFSET 15.7357 0.0 0.0
			CHANNELS 6 Xposition Yposition Zposition Zrotation Xrotation Yrotation 
			JOINT Chest
			{
				OFFSET 8.98455 -0.406207 0.0
				CHANNELS 6 Xposition Yposition Zposition Zrotation Xrotation Yrotation 
				JOINT Neck
				{
					OFFSET 16.3773 0.0 0.0
					CHANNELS 6 Xposition Yposition Zposition Zrotation Xrotation Yrotation 
					JOINT Head
					{
						OFFSET 6.45672 0.0 0.0
						CHANNELS 6 Xposition Yposition Zposition Zrotation Xrotation Yrotation 
						End Site
						{
							OFFSET 0.0 0.0 0.0
						}
					}
				}
				JOINT Shoulder_L
				{
					OFFSET 12.9942 -0.242716 4.98039
					CHANNELS 6 Xposition Yposition Zposition Zrotation Xrotation Yrotation 
					JOINT UpperArm_L
					{
						OFFSET 5.34809 0.0 0.0
						CHANNELS 6 Xposition Yposition Zposition Zrotation Xrotation Yrotation 
						JOINT LowerArm_L
						{
							OFFSET 24.3286 1.87007e-05 0.0
							CHANNELS 6 Xposition Yposition Zposition Zrotation Xrotation Yrotation 
							JOINT Hand_L
							{
								OFFSET 22.2916 0.0 0.0
								CHANNELS 6 Xposition Yposition Zposition Zrotation Xrotation Yrotation 
								End Site
								{
									OFFSET 0.0 0.0 0.0
								}
							}
						}
					}
				}
				JOINT Shoulder_R
				{
					OFFSET 12.9945 -0.242716 -4.98039
					CHANNELS 6 Xposition Yposition Zposition Zrotation Xrotation Yrotation 
					JOINT UpperArm_R
					{
						OFFSET -5.34813 0.0 0.0
						CHANNELS 6 Xposition Yposition Zposition Zrotation Xrotation Yrotation 
						JOINT LowerArm_R
						{
							OFFSET -24.3289 0.000322201 0.0
							CHANNELS 6 Xposition Yposition Zposition Zrotation Xrotation Yrotation 
							JOINT Hand_R
							{
								OFFSET -22.2915 -0.000108084 0.0
								CHANNELS 6 Xposition Yposition Zposition Zrotation Xrotation Yrotation 
								End Site
								{
									OFFSET 0.0 0.0 0.0
								}
							}
						}
					}
				}
			}
		}
		JOINT UpperLeg_L
		{
			OFFSET -2.19248 -6.46944 0.0
			CHANNELS 6 Xposition Yposition Zposition Zrotation Xrotation Yrotation 
			JOINT LowerLeg_L
			{
				OFFSET 39.0811 0.0 -1.23785e-05
				CHANNELS 6 Xposition Yposition Zposition Zrotation Xrotation Yrotation 
				JOINT Foot_L
				{
					OFFSET 40.9854 0.0 -1.26872e-05
					CHANNELS 6 Xposition Yposition Zposition Zrotation Xrotation Yrotation 
					JOINT Toes_L
					{
						OFFSET 11.7543 0.0 0.0
						CHANNELS 6 Xposition Yposition Zposition Zrotation Xrotation Yrotation 
						End Site
						{
							OFFSET 0.0 0.0 0.0
						}
					}
				}
			}
		}
		JOINT UpperLeg_R
		{
			OFFSET -2.19251 6.46944 0.0
			CHANNELS 6 Xposition Yposition Zposition Zrotation Xrotation Yrotation 
			JOINT LowerLeg_R
			{
				OFFSET -39.0811 -0.00228153 -0.0401928
				CHANNELS 6 Xposition Yposition Zposition Zrotation Xrotation Yrotation 
				JOINT Foot_R
				{
					OFFSET -40.9854 0.0 0.0
					CHANNELS 6 Xposition Yposition Zposition Zrotation Xrotation Yrotation 
					JOINT Toes_R
					{
						OFFSET -11.7543 0.0 0.0
						CHANNELS 6 Xposition Yposition Zposition Zrotation Xrotation Yrotation 
						End Site
						{
							OFFSET 0.0 0.0 0.0
						}
					}
				}
			}
		}
	}
}
MOTION
Frames:	6
Frame Time:	0.0333333
0.000000 0.000000 0.000000 0.000000 0.000000 -0.000000 190.144000 94.385400 -142.383000 91.110100 0.119295 -6.190200 15.735700 0.000005 -0.000001 143.168000 86.996000 -142.809000 8.984550 -0.406207 -0.000000 -4.186710 4.767920 0.893389 16.377300 -0.000001 -0.000001 -3.967380 0.939989 -2.567140 6.456720 -0.000001 -0.000000 1.923900 -2.698150 -3.011130 12.994200 -0.242716 4.980390 -92.377000 6.166050 -68.870600 5.348090 -0.000007 -0.000001 -51.236900 -19.459300 15.889200 24.328600 0.000019 0.000005 2.648630 22.365200 -6.931680 22.291600 -0.000001 0.000005 0.285024 4.888660 9.589660 12.994500 -0.242716 -4.980390 89.392700 2.224290 -74.725000 -5.348130 -0.000001 -0.000004 -65.821800 22.561100 -19.933800 -24.328900 0.000322 -0.000009 0.121041 0.093453 -52.631200 -22.291500 -0.000108 -0.000004 5.308690 5.372850 -2.074400 -2.192480 -6.469440 -0.000000 -176.081000 3.132010 -24.207300 39.081100 -0.000007 -0.000012 0.040254 -0.150624 14.962800 40.985400 -0.000006 -0.000013 -9.757840 11.975900 -52.953500 11.754300 -0.000000 0.000003 0.002022 0.047533 -14.648700 -2.192510 6.469440 -0.000001 178.309000 10.267700 -175.463000 -39.081100 -0.002282 -0.040193 0.003127 0.001231 9.777850 -40.985400 0.000008 0.000006 -4.141570 7.084540 -63.943500 -11.754300 -0.000006 -0.000006 0.002270 0.108687 -12.165800
0.000000 0.000000 0.000000 0.000000 0.000000 -0.000000 190.374000 93.602100 -139.316000 90.576900 -0.590014 -6.835960 15.735700 0.000005 -0.000001 146.617000 86.933600 -146.207000 8.984550 -0.406207 -0.000000 -4.418550 5.073300 1.016680 16.377300 -0.000001 -0.000001 -4.269370 1.136890 -2.677180 6.456720 -0.000001 -0.000000 1.664440 -2.724240 -3.003790 12.994200 -0.242716 4.980390 -92.285900 5.933260 -68.885100 5.348090 -0.000007 -0.000001 -48.274400 -21.276300 17.068700 24.328600 0.000019 0.000005 2.445640 20.881600 -6.833000 22.291600 -0.000001 0.000005 4.643950 4.838860 10.564800 12.994500 -0.242716 -4.980390 89.399700 2.222730 -74.881700 -5.348130 -0.000001 -0.000004 -64.241400 22.919800 -21.654100 -24.328900 0.000322 -0.000009 0.147832 0.102227 -55.577500 -22.291500 -0.000108 -0.000004 5.583830 5.381490 -2.345120 -2.192480 -6.469440 -0.000000 -175.268000 2.221250 -24.813300 39.081100 -0.000007 -0.000012 0.000725 -0.007609 5.450380 40.985400 -0.000006 -0.000013 -8.904770 11.260100 -56.912900 11.754300 -0.000000 0.000003 0.002088 0.050230 -14.539300 -2.192510 6.469440 -0.000001 178.205000 10.294900 -174.436000 -39.081100 -0.002282 -0.040193 -0.003929 0.039255 10.487800 -40.985400 0.000008 0.000006 -4.206790 7.866170 -64.682400 -11.754300 -0.000006 -0.000006 0.002443 0.072542 -13.631100
0.000000 0.000000 0.000000 0.000000 0.000000 -0.000000 190.804000 92.585500 -136.093000 90.314200 -1.003850 -7.554040 15.735700 0.000005 -0.000001 147.726000 86.962100 -147.278000 8.984550 -0.406207 -0.000000 -4.550890 5.084650 1.099240 16.377300 -0.000001 -0.000001 -4.714460 1.453810 -3.028750 6.456720 -0.000001 -0.000000 1.082110 -2.616170 -3.030290 12.994200 -0.242716 4.980390 -92.606400 6.788100 -68.936900 5.348090 -0.000007 -0.000001 -45.406400 -22.010500 17.580100 24.328600 0.000019 0.000005 2.194650 18.777200 -6.789190 22.291600 -0.000001 0.000005 8.686660 4.779920 11.683600 12.994500 -0.242716 -4.980390 89.176900 3.065610 -74.962200 -5.348130 -0.000001 -0.000004 -61.732000 23.161700 -23.443900 -24.328900 0.000322 -0.000009 0.111709 0.072106 -57.449500 -22.291500 -0.000108 -0.000004 5.707810 5.385440 -2.469950 -2.192480 -6.469440 -0.000000 -175.078000 2.019510 -26.644700 39.081100 -0.000007 -0.000012 -0.001199 0.084796 0.809857 40.985400 -0.000006 -0.000013 -7.790620 7.500260 -61.026100 11.754300 -0.000000 0.000003 0.002119 0.051539 -14.486200 -2.192510 6.469440 -0.000001 177.676000 9.976090 -174.177000 -39.081100 -0.002282 -0.040193 -0.012393 0.069033 12.833700 -40.985400 0.000008 0.000006 -4.805310 8.499010 -66.081400 -11.754300 -0.000006 -0.000006 0.001121 0.021667 -15.694300
0.000000 0.000000 0.000000 0.000000 0.000000 -0.000000 191.375000 91.418800 -132.354000 89.940300 -1.108170 -7.526350 15.735700 0.000005 -0.000001 144.148000 86.929400 -143.539000 8.984550 -0.406207 -0.000000 -4.203050 4.910310 1.400420 16.377300 -0.000001 -0.000001 -5.111310 1.662510 -3.348430 6.456720 -0.000001 -0.000000 0.252665 -2.356960 -3.174970 12.994200 -0.242716 4.980390 -93.004400 7.893840 -69.085200 5.348090 -0.000007 -0.000001 -43.565400 -22.716400 17.433300 24.328600 0.000019 0.000005 1.955760 17.111400 -6.619780 22.291600 -0.000001 0.000005 12.561100 4.717460 12.831000 12.994500 -0.242716 -4.980390 89.029900 3.685720 -75.242100 -5.348130 -0.000001 -0.000004 -60.416700 22.800600 -23.955400 -24.328900 0.000322 -0.000009 0.085465 0.054171 -58.013200 -22.291500 -0.000108 -0.000004 5.909620 5.405110 -3.102670 -2.192480 -6.469440 -0.000000 -175.175000 1.450190 -28.505000 39.081100 -0.000007 -0.000012 -0.003881 0.101389 2.191530 40.985400 -0.000006 -0.000013 -9.799340 4.214000 -62.966200 11.754300 -0.000000 0.000003 0.002145 0.052716 -14.438500 -2.192510 6.469440 -0.000001 176.971000 9.629110 -173.078000 -39.081100 -0.002282 -0.040193 -0.023681 0.096676 15.609800 -40.985400 0.000008 0.000006 -5.815760 9.237920 -66.914000 -11.754300 -0.000006 -0.000006 -0.004116 -0.052645 -18.714600
0.000000 0.000000 0.000000 0.000000 0.000000 -0.000000 192.079000 90.463300 -128.190000 90.322200 -0.156475 -8.326960 15.735700 0.000005 -0.000001 143.490000 87.197300 -142.946000 8.984550 -0.406207 -0.000000 -4.458950 4.443610 1.263110 16.377300 -0.000001 -0.000001 -5.563210 1.487820 -3.506150 6.456720 -0.000001 -0.000000 -0.536828 -2.329280 -3.117490 12.994200 -0.242716 4.980390 -93.317000 8.902750 -69.469000 5.348090 -0.000007 -0.000001 -43.807800 -22.431200 15.949600 24.328600 0.000019 0.000005 1.608580 14.983800 -6.198360 22.291600 -0.000001 0.000005 16.333100 4.660770 13.849100 12.994500 -0.242716 -4.980390 88.928700 4.038960 -75.131300 -5.348130 -0.000001 -0.000004 -61.041700 21.725400 -22.373200 -24.328900 0.000322 -0.000009 -0.579712 -0.378561 -56.828100 -22.291500 -0.000108 -0.000004 6.418810 5.437570 -4.201110 -2.192480 -6.469440 -0.000000 -177.118000 -0.219674 -31.117000 39.081100 -0.000007 -0.000012 0.003516 -0.029595 6.776170 40.985400 -0.000006 -0.000013 -11.959700 5.769460 -57.404200 11.754300 -0.000000 0.000003 0.001973 0.045678 -14.723900 -2.192510 6.469440 -0.000001 175.602000 10.558400 -172.611000 -39.081100 -0.002282 -0.040193 -0.027726 0.094254 18.233800 -40.985400 0.000008 0.000006 -7.042000 10.232400 -65.854000 -11.754300 -0.000006 -0.000006 -0.020723 -0.171260 -23.571500
0.000000 0.000000 0.000000 0.000000 0.000000 -0.000000 192.927000 89.771200 -123.441000 91.094100 0.368975 -9.918460 15.735700 0.000005 -0.000001 157.150000 87.607800 -157.002000 8.984550 -0.406207 -0.000000 -5.923450 4.384970 0.522826 16.377300 -0.000001 -0.000001 -5.514970 1.127970 -2.871430 6.456720 -0.000001 -0.000000 -0.512969 -2.476220 -2.505150 12.994200 -0.242716 4.980390 -93.347700 9.069910 -69.641900 5.348090 -0.000007 -0.000001 -45.510300 -22.014500 14.138000 24.328600 0.000019 0.000005 1.481770 14.044800 -6.083930 22.291600 -0.000001 0.000005 18.239900 4.624260 14.495200 12.994500 -0.242716 -4.980390 88.717900 4.689610 -74.691400 -5.348130 -0.000001 -0.000004 -63.385600 20.227700 -18.134100 -24.328900 0.000322 -0.000009 -1.748960 -1.303450 -53.308400 -22.291500 -0.000108 -0.000004 6.520710 5.459700 -4.990020 -2.192480 -6.469440 -0.000000 -179.658000 -0.893278 -36.179200 39.081100 -0.000007 -0.000012 0.003347 -0.011704 15.963300 40.985400 -0.000006 -0.000013 -8.800630 8.277170 -50.321800 11.754300 -0.000000 0.000003 0.002383 0.066629 -13.874400 -2.192510 6.469440 -0.000001 174.103000 10.700700 -173.285000 -39.081100 -0.002282 -0.040193 -0.012339 0.040446 21.163600 -40.985400 0.000008 0.000006 -7.850000 10.322700 -62.473100 -11.754300 -0.000006 -0.000006 -0.063347 -0.342502 -30.730100
